<svg id="profile" xmlns="http://www.w3.org/2000/svg" viewBox="0 0 1400 1400"><defs><style>.cls-1{fill:#f35635;}</style></defs><title>profile</title><g id="nuotron_symbol" data-name="nuotron symbol"><path id="ellipse" class="cls-1" d="M541,1300c-243.17,0-441-197.83-441-441S297.83,418,541,418,982,615.83,982,859,784.17,1300,541,1300Zm0-693c-138.95,0-252,113-252,252s113.05,252,252,252S793,998,793,859,680,607,541,607Z"/><path id="ellipse-2" data-name="ellipse" class="cls-1" d="M1075.57,450.43a126,126,0,0,1-89.09-215.1c49.12-49.13,129-49.12,178.18,0s49.13,129.09,0,178.21A125.18,125.18,0,0,1,1075.57,450.43Z"/></g></svg>
